<svg xmlns="http://www.w3.org/2000/svg" width="159" height="19" viewBox="0 0 159 19" fill="none">
    <path opacity="0.7" fill-rule="evenodd" clip-rule="evenodd" d="M6.27583 3.13303C6.27583 1.54142 5.09533 0.2358 3.56689 0.0244141C3.72844 0.0244141 3.88998 0.0244141 4.03909 0.0368485C4.83438 0.0368485 5.62966 0.0990209 6.41252 0.223366C6.41444 0.223366 6.41607 0.223665 6.41749 0.224217C7.59607 0.410901 8.72513 0.746313 9.8294 1.2057C11.5939 1.95176 13.1845 3.02113 14.5514 4.38892C15.9183 5.75671 16.987 7.34832 17.7325 9.11402C18.2029 10.2041 18.5254 11.3312 18.7121 12.4953L18.7269 12.5087C18.8512 13.2921 18.9133 14.0879 18.9133 14.8962V14.8962C18.9133 15.0951 18.9133 15.2941 18.9009 15.493C18.7642 13.8765 17.4097 12.6206 15.7694 12.6206H12.3274C12.2166 12.1898 12.0694 11.7833 11.8856 11.3771H11.8797C11.4572 10.4321 10.8608 9.57409 10.1152 8.82802C9.3572 8.06952 8.47494 7.47267 7.53054 7.04989V7.0373C7.12059 6.85085 6.71063 6.70169 6.27583 6.58981V3.13303ZM12.3274 11.3772V11.3771H15.7692L15.8141 11.3773L15.7819 11.3772H12.3274Z" fill="white"/>
    <path d="M18.9004 15.4933C18.7637 13.8893 17.4092 12.621 15.769 12.621H12.3269H7.33152C6.74748 12.621 6.28771 12.1485 6.28771 11.5765V6.6027V3.14592C6.28771 1.55431 5.10721 0.248689 3.57877 0.0373034C3.42966 0.0124345 3.28054 0 3.14385 0C2.8332 0 2.53496 0.0497379 2.24916 0.124345C0.944399 0.509813 0 1.71596 0 3.14592V7.31147V15.7669C0 17.5077 1.40417 18.9128 3.14385 18.9128H11.6434H15.769C17.2477 18.9128 18.5028 17.8808 18.8258 16.5005C18.8755 16.2643 18.9128 16.028 18.9128 15.7793C18.9128 15.6799 18.9004 15.5804 18.9004 15.4933Z" fill="white"/>
    <path d="M26.7995 15.6261C26.3875 15.6261 26.0697 15.5142 25.8461 15.2904C25.6224 15.0665 25.5106 14.7484 25.5106 14.3361V4.43984C25.5106 4.02749 25.6342 3.69762 25.8814 3.45021C26.1286 3.2028 26.464 3.0791 26.8878 3.0791C27.3115 3.0791 27.6469 3.2028 27.8941 3.45021C28.1413 3.69762 28.2649 4.02749 28.2649 4.43984V13.3818H32.7847C33.644 13.3818 34.0736 13.7588 34.0736 14.5128C34.0736 15.255 33.644 15.6261 32.7847 15.6261H26.7995Z" fill="white"/>
    <path d="M39.1491 6.73718C40.4204 6.73718 41.362 7.04938 41.974 7.67379C42.5861 8.28641 42.8921 9.22891 42.8921 10.5013V14.4951C42.8921 14.8839 42.7803 15.1902 42.5567 15.4141C42.333 15.6261 42.0211 15.7322 41.6209 15.7322C41.2443 15.7322 40.9382 15.6202 40.7028 15.3964C40.4792 15.1608 40.3674 14.8603 40.3674 14.4951V14.3714C40.1908 14.8073 39.8966 15.149 39.4846 15.3964C39.0726 15.6438 38.5901 15.7675 38.0368 15.7675C37.4483 15.7675 36.9128 15.6497 36.4302 15.4141C35.9594 15.1784 35.5827 14.8486 35.3002 14.4244C35.0295 14.0003 34.8942 13.5291 34.8942 13.0107C34.8942 12.3745 35.0531 11.8738 35.3709 11.5086C35.7004 11.1434 36.2242 10.8783 36.9422 10.7133C37.6602 10.5484 38.643 10.4659 39.8907 10.4659H40.3497V10.1478C40.3497 9.65304 40.2379 9.29371 40.0143 9.06987C39.8024 8.84602 39.4434 8.7341 38.9373 8.7341C38.4312 8.7341 37.7014 8.91082 36.748 9.26426C36.4773 9.39385 36.2477 9.45865 36.0594 9.45865C35.8005 9.45865 35.5945 9.37029 35.4415 9.19357C35.2885 9.00507 35.212 8.76355 35.212 8.46902C35.212 8.2334 35.2649 8.03901 35.3709 7.88585C35.4768 7.73269 35.6475 7.59132 35.8829 7.46173C36.2948 7.23788 36.7951 7.06116 37.3836 6.93157C37.9839 6.80198 38.5724 6.73718 39.1491 6.73718ZM38.6195 13.9296C39.1374 13.9296 39.5552 13.7588 39.873 13.4171C40.1908 13.0637 40.3497 12.6101 40.3497 12.0564V11.756H40.0496C39.0962 11.756 38.4253 11.8326 38.0368 11.9857C37.6602 12.1389 37.4719 12.4157 37.4719 12.8163C37.4719 13.1462 37.5778 13.4171 37.7897 13.6292C38.0133 13.8295 38.2899 13.9296 38.6195 13.9296Z" fill="white"/>
    <path d="M50.8 7.53241C50.906 7.28501 51.0531 7.1024 51.2414 6.98458C51.4415 6.86677 51.6534 6.80787 51.877 6.80787C52.2184 6.80787 52.5185 6.91979 52.7775 7.14363C53.0364 7.35569 53.1659 7.61488 53.1659 7.92119C53.1659 8.08613 53.1247 8.25107 53.0423 8.41601L48.293 18.1709C48.1752 18.4183 48.0163 18.6009 47.8162 18.7187C47.6162 18.8483 47.4043 18.9131 47.1806 18.9131C46.8511 18.9131 46.5627 18.8071 46.3155 18.595C46.0683 18.3829 45.9448 18.1238 45.9448 17.8174C45.9448 17.6289 45.986 17.4522 46.0683 17.2873L47.2336 14.8662L44.0909 8.41601C44.0203 8.25107 43.985 8.09202 43.985 7.93887C43.985 7.62077 44.1203 7.3498 44.3911 7.12596C44.6736 6.90212 44.9914 6.79019 45.3445 6.79019C45.5799 6.79019 45.7976 6.85499 45.9977 6.98458C46.1978 7.1024 46.3567 7.28501 46.4744 7.53241L48.6637 12.3038L50.8 7.53241Z" fill="white"/>
    <path d="M61.1006 13.046C61.336 13.046 61.5243 13.1403 61.6655 13.3288C61.8186 13.5173 61.8951 13.7588 61.8951 14.0533C61.8951 14.2536 61.8362 14.4421 61.7185 14.6188C61.6008 14.7838 61.436 14.9251 61.2242 15.043C60.824 15.255 60.359 15.4317 59.8294 15.5731C59.2997 15.7027 58.8112 15.7675 58.3639 15.7675C57.4223 15.7675 56.5984 15.5849 55.8922 15.2197C55.1977 14.8545 54.6622 14.3361 54.2855 13.6646C53.9089 12.9812 53.7205 12.1801 53.7205 11.2612C53.7205 10.3776 53.903 9.59413 54.2678 8.91082C54.6327 8.22751 55.1389 7.69735 55.7862 7.32035C56.4336 6.93157 57.1693 6.73718 57.9932 6.73718C58.7818 6.73718 59.4704 6.9139 60.0589 7.26733C60.6592 7.60899 61.1241 8.1038 61.4537 8.75177C61.7832 9.38796 61.948 10.1361 61.948 10.9961C61.948 11.2553 61.8833 11.4556 61.7538 11.5969C61.6361 11.7265 61.4654 11.7913 61.2418 11.7913H56.2982C56.3806 12.4864 56.5925 12.993 56.9338 13.3111C57.2752 13.6174 57.7637 13.7706 58.3993 13.7706C58.7406 13.7706 59.0466 13.7293 59.3173 13.6469C59.5881 13.5644 59.8882 13.4525 60.2178 13.3111C60.3826 13.2404 60.5415 13.1815 60.6945 13.1344C60.8475 13.0755 60.9829 13.046 61.1006 13.046ZM58.0638 8.57505C57.5577 8.57505 57.1516 8.73999 56.8456 9.06987C56.5395 9.38796 56.3571 9.85332 56.2982 10.4659H59.7058C59.6705 9.84154 59.5116 9.37029 59.2291 9.05219C58.9584 8.7341 58.5699 8.57505 58.0638 8.57505Z" fill="white"/>
    <path d="M68.7314 6.77252C69.0845 6.74896 69.3611 6.83143 69.5612 7.01993C69.773 7.19665 69.879 7.46762 69.879 7.83283C69.879 8.22161 69.7848 8.51026 69.5965 8.69876C69.4082 8.88726 69.0727 9.00507 68.5901 9.05219L68.0605 9.10521C67.4131 9.1759 66.9423 9.38796 66.648 9.7414C66.3655 10.0948 66.2243 10.5484 66.2243 11.1021V14.4775C66.2243 14.8898 66.0948 15.202 65.8358 15.4141C65.5887 15.6261 65.2768 15.7322 64.9001 15.7322C64.5117 15.7322 64.188 15.6261 63.929 15.4141C63.6819 15.202 63.5583 14.8898 63.5583 14.4775V7.99188C63.5583 7.6031 63.6877 7.30268 63.9467 7.09062C64.2056 6.87855 64.5176 6.77252 64.8824 6.77252C65.2356 6.77252 65.5298 6.87855 65.7652 7.09062C66.0006 7.2909 66.1183 7.57365 66.1183 7.93887V8.41601C66.3302 7.90941 66.648 7.52063 67.0717 7.24966C67.5072 6.97869 67.9781 6.82554 68.4842 6.79019L68.7314 6.77252Z" fill="white"/>
    <path d="M73.8424 15.7675C73.1244 15.7675 72.5006 15.7086 71.9709 15.5908C71.4412 15.473 70.9763 15.2845 70.5761 15.0253C70.3995 14.9193 70.2642 14.7779 70.17 14.6012C70.0759 14.4244 70.0288 14.2242 70.0288 14.0003C70.0288 13.7293 70.1053 13.5055 70.2583 13.3288C70.4113 13.1403 70.5996 13.046 70.8233 13.046C70.9763 13.046 71.1293 13.0755 71.2823 13.1344C71.4353 13.1815 71.5942 13.2404 71.759 13.3111C72.0886 13.4643 72.4123 13.588 72.7301 13.6822C73.0479 13.7647 73.4422 13.8059 73.913 13.8059C74.325 13.8059 74.6428 13.7411 74.8664 13.6115C75.1018 13.4819 75.2195 13.3052 75.2195 13.0814C75.2195 12.9164 75.1665 12.7868 75.0606 12.6926C74.9665 12.5866 74.784 12.4923 74.5133 12.4098C74.2426 12.3274 73.813 12.2272 73.2244 12.1094C72.1769 11.9091 71.4236 11.6087 70.9645 11.2082C70.5055 10.8076 70.2759 10.248 70.2759 9.52933C70.2759 8.99918 70.4348 8.52204 70.7527 8.09791C71.0822 7.67379 71.5295 7.34391 72.0945 7.10829C72.6595 6.86088 73.2951 6.73718 74.0013 6.73718C74.5074 6.73718 75.0018 6.80198 75.4843 6.93157C75.9669 7.06116 76.3966 7.24377 76.7732 7.4794C77.1381 7.70324 77.3205 8.03312 77.3205 8.46902C77.3205 8.75177 77.244 8.9874 77.091 9.1759C76.938 9.3644 76.7497 9.45865 76.526 9.45865C76.2553 9.45865 75.9316 9.35262 75.555 9.14055C75.2607 8.9874 74.99 8.87547 74.7428 8.80479C74.5074 8.72232 74.2249 8.68108 73.8953 8.68108C73.5305 8.68108 73.2421 8.75177 73.0302 8.89315C72.8184 9.02274 72.7124 9.20535 72.7124 9.44097C72.7124 9.68838 72.836 9.87688 73.0832 10.0065C73.3304 10.1361 73.8071 10.2657 74.5133 10.3953C75.3019 10.5484 75.9199 10.7369 76.3671 10.9608C76.8144 11.1728 77.1381 11.4438 77.3382 11.7737C77.5383 12.1035 77.6383 12.5218 77.6383 13.0284C77.6383 13.8648 77.2911 14.5305 76.5966 15.0253C75.914 15.5201 74.9959 15.7675 73.8424 15.7675Z" fill="white"/>
    <path d="M91.0495 13.6292C91.179 13.6292 91.2908 13.6822 91.385 13.7883C91.4792 13.8943 91.5262 14.0298 91.5262 14.1947C91.5262 14.4892 91.3203 14.7602 90.9083 15.0076C90.4846 15.255 90.0373 15.4435 89.5665 15.5731C89.0957 15.6909 88.6366 15.7498 88.1893 15.7498C86.8593 15.7498 85.8058 15.3552 85.029 14.5658C84.2639 13.7765 83.8814 12.6867 83.8814 11.2965C83.8814 10.4129 84.052 9.63537 84.3934 8.96383C84.7347 8.28052 85.2114 7.75037 85.8235 7.37337C86.4473 6.99637 87.1535 6.80787 87.9422 6.80787C89.0603 6.80787 89.949 7.17309 90.6082 7.90352C91.2673 8.63396 91.5969 9.62358 91.5969 10.8724C91.5969 11.108 91.5498 11.2788 91.4556 11.3849C91.3615 11.4909 91.2084 11.5439 90.9966 11.5439H85.3115C85.4174 13.5703 86.3767 14.5835 88.1893 14.5835C88.6484 14.5835 89.0427 14.5246 89.3723 14.4068C89.7018 14.2772 90.0549 14.1063 90.4316 13.8943C90.7376 13.7176 90.9436 13.6292 91.0495 13.6292ZM87.9598 7.92119C87.2065 7.92119 86.6003 8.15682 86.1413 8.62807C85.694 9.09932 85.4292 9.76496 85.3468 10.625H90.3433C90.3198 9.75318 90.102 9.08754 89.6901 8.62807C89.2781 8.15682 88.7014 7.92119 87.9598 7.92119Z" fill="white"/>
    <path d="M100.607 3.0791C100.831 3.0791 101.007 3.1439 101.137 3.27349C101.266 3.40309 101.331 3.56802 101.331 3.76831V15.0076C101.331 15.2197 101.266 15.3905 101.137 15.5201C101.007 15.6497 100.831 15.7145 100.607 15.7145C100.384 15.7145 100.207 15.6497 100.078 15.5201C99.9599 15.3905 99.9011 15.2197 99.9011 15.0076V14.0533C99.6421 14.5953 99.2596 15.0135 98.7534 15.308C98.2591 15.6026 97.6765 15.7498 97.0055 15.7498C96.2522 15.7498 95.5872 15.5613 95.0105 15.1843C94.4337 14.8073 93.9864 14.2831 93.6686 13.6115C93.3508 12.9282 93.1919 12.1389 93.1919 11.2435C93.1919 10.3599 93.3508 9.58235 93.6686 8.91082C93.9864 8.23929 94.4337 7.72091 95.0105 7.35569C95.5872 6.99048 96.2522 6.80787 97.0055 6.80787C97.6765 6.80787 98.2591 6.95513 98.7534 7.24966C99.2596 7.54419 99.6421 7.96243 99.9011 8.50437V3.76831C99.9011 3.55624 99.9599 3.3913 100.078 3.27349C100.207 3.1439 100.384 3.0791 100.607 3.0791ZM97.288 14.5658C98.1237 14.5658 98.7652 14.2831 99.2125 13.7176C99.6715 13.1403 99.9011 12.3274 99.9011 11.2788C99.9011 10.2303 99.6715 9.4233 99.2125 8.8578C98.7652 8.2923 98.1237 8.00955 97.288 8.00955C96.4523 8.00955 95.7991 8.2923 95.3283 8.8578C94.8692 9.4233 94.6397 10.2185 94.6397 11.2435C94.6397 12.292 94.8692 13.1108 95.3283 13.6999C95.7991 14.2772 96.4523 14.5658 97.288 14.5658Z" fill="white"/>
    <path d="M110.513 6.84321C110.736 6.84321 110.907 6.90801 111.025 7.0376C111.154 7.16719 111.219 7.33802 111.219 7.55008V15.0253C111.219 15.2256 111.154 15.3905 111.025 15.5201C110.907 15.6497 110.736 15.7145 110.513 15.7145C110.301 15.7145 110.13 15.6556 110.001 15.5378C109.883 15.4082 109.824 15.2432 109.824 15.043V14.1594C109.553 14.6777 109.171 15.0724 108.676 15.3434C108.194 15.6143 107.647 15.7498 107.034 15.7498C106.01 15.7498 105.239 15.4671 104.722 14.9016C104.204 14.3243 103.945 13.4761 103.945 12.3568V7.55008C103.945 7.33802 104.009 7.16719 104.139 7.0376C104.268 6.90801 104.445 6.84321 104.669 6.84321C104.892 6.84321 105.063 6.90801 105.181 7.0376C105.31 7.16719 105.375 7.33802 105.375 7.55008V12.3215C105.375 13.0873 105.528 13.6528 105.834 14.018C106.14 14.3714 106.623 14.5481 107.282 14.5481C108.035 14.5481 108.641 14.3066 109.1 13.8236C109.559 13.3288 109.789 12.6808 109.789 11.8797V7.55008C109.789 7.33802 109.853 7.16719 109.983 7.0376C110.112 6.90801 110.289 6.84321 110.513 6.84321Z" fill="white"/>
    <path d="M117.426 15.7498C116.625 15.7498 115.913 15.5672 115.289 15.202C114.677 14.8368 114.201 14.3184 113.859 13.6469C113.53 12.9753 113.365 12.1978 113.365 11.3142C113.365 10.4306 113.535 9.64715 113.877 8.96383C114.23 8.28052 114.718 7.75037 115.342 7.37337C115.966 6.99637 116.684 6.80787 117.496 6.80787C117.944 6.80787 118.385 6.87266 118.82 7.00226C119.268 7.12007 119.656 7.29679 119.986 7.53241C120.198 7.67379 120.345 7.81516 120.427 7.95654C120.521 8.08613 120.568 8.2334 120.568 8.39833C120.568 8.56327 120.521 8.69876 120.427 8.80479C120.345 8.91082 120.233 8.96383 120.092 8.96383C120.009 8.96383 119.921 8.94027 119.827 8.89315C119.733 8.84602 119.65 8.7989 119.58 8.75177C119.521 8.70465 119.48 8.67519 119.456 8.66341C119.15 8.46313 118.856 8.30408 118.573 8.18627C118.303 8.06846 117.967 8.00955 117.567 8.00955C116.708 8.00955 116.037 8.30408 115.554 8.89315C115.083 9.47043 114.848 10.2774 114.848 11.3142C114.848 12.3509 115.083 13.1521 115.554 13.7176C116.037 14.2831 116.708 14.5658 117.567 14.5658C117.967 14.5658 118.308 14.5069 118.591 14.3891C118.885 14.2713 119.179 14.1122 119.474 13.912C119.603 13.8295 119.727 13.7588 119.844 13.6999C119.962 13.641 120.062 13.6115 120.145 13.6115C120.274 13.6115 120.38 13.6646 120.462 13.7706C120.557 13.8766 120.604 14.0121 120.604 14.177C120.604 14.3302 120.562 14.4716 120.48 14.6012C120.398 14.719 120.245 14.8545 120.021 15.0076C119.691 15.2315 119.291 15.4141 118.82 15.5554C118.361 15.685 117.896 15.7498 117.426 15.7498Z" fill="white"/>
    <path d="M125.839 6.80787C127.993 6.80787 129.07 7.93887 129.07 10.2009V15.0076C129.07 15.2197 129.005 15.3905 128.876 15.5201C128.758 15.6497 128.593 15.7145 128.381 15.7145C128.169 15.7145 127.999 15.6497 127.869 15.5201C127.74 15.3905 127.675 15.2197 127.675 15.0076V14.1594C127.451 14.666 127.11 15.0606 126.651 15.3434C126.192 15.6143 125.662 15.7498 125.062 15.7498C124.509 15.7498 123.997 15.6379 123.526 15.4141C123.067 15.1902 122.702 14.878 122.431 14.4775C122.161 14.0769 122.025 13.6351 122.025 13.1521C122.025 12.5041 122.19 12.0034 122.52 11.65C122.849 11.2847 123.391 11.0256 124.144 10.8724C124.897 10.7075 125.945 10.625 127.287 10.625H127.675V10.0418C127.675 9.33494 127.528 8.81657 127.234 8.48669C126.951 8.15682 126.486 7.99188 125.839 7.99188C125.038 7.99188 124.226 8.20983 123.402 8.64574C123.085 8.84602 122.861 8.94616 122.731 8.94616C122.59 8.94616 122.472 8.89315 122.378 8.78711C122.284 8.68108 122.237 8.5456 122.237 8.38066C122.237 8.21572 122.284 8.07435 122.378 7.95654C122.484 7.82694 122.649 7.69735 122.873 7.56776C123.285 7.33213 123.75 7.14952 124.267 7.01993C124.797 6.87855 125.321 6.80787 125.839 6.80787ZM125.256 14.6188C125.962 14.6188 126.539 14.3832 126.986 13.912C127.445 13.4289 127.675 12.8104 127.675 12.0564V11.5439H127.357C126.321 11.5439 125.533 11.5911 124.991 11.6853C124.45 11.7678 124.061 11.915 123.826 12.1271C123.602 12.3274 123.491 12.6278 123.491 13.0284C123.491 13.4878 123.655 13.8707 123.985 14.177C124.326 14.4716 124.75 14.6188 125.256 14.6188Z" fill="white"/>
    <path d="M135.66 14.5835C136.072 14.6188 136.278 14.8073 136.278 15.149C136.278 15.3493 136.202 15.5024 136.049 15.6085C135.907 15.7027 135.69 15.7381 135.395 15.7145L134.919 15.6791C133.977 15.6085 133.282 15.3257 132.835 14.8309C132.388 14.3361 132.164 13.588 132.164 12.5866V8.15093H130.981C130.781 8.15093 130.622 8.1038 130.505 8.00955C130.399 7.90352 130.346 7.76804 130.346 7.6031C130.346 7.42638 130.399 7.28501 130.505 7.17898C130.622 7.07294 130.781 7.01993 130.981 7.01993H132.164V5.02301C132.164 4.79916 132.229 4.62834 132.359 4.51052C132.488 4.38093 132.665 4.31613 132.888 4.31613C133.1 4.31613 133.271 4.38093 133.4 4.51052C133.53 4.62834 133.594 4.79916 133.594 5.02301V7.01993H135.554C135.743 7.01993 135.89 7.07294 135.996 7.17898C136.113 7.28501 136.172 7.42638 136.172 7.6031C136.172 7.76804 136.113 7.90352 135.996 8.00955C135.89 8.1038 135.743 8.15093 135.554 8.15093H133.594V12.6573C133.594 13.3052 133.724 13.7765 133.983 14.071C134.254 14.3538 134.654 14.5128 135.183 14.5481L135.66 14.5835Z" fill="white"/>
    <path d="M138.412 15.7145C138.2 15.7145 138.023 15.6556 137.882 15.5378C137.752 15.4082 137.688 15.2315 137.688 15.0076V7.55008C137.688 7.32624 137.752 7.15541 137.882 7.0376C138.023 6.90801 138.2 6.84321 138.412 6.84321C138.623 6.84321 138.794 6.90801 138.924 7.0376C139.053 7.15541 139.118 7.32624 139.118 7.55008V15.0076C139.118 15.2432 139.053 15.42 138.924 15.5378C138.794 15.6556 138.623 15.7145 138.412 15.7145ZM138.412 4.98766C138.129 4.98766 137.9 4.90519 137.723 4.74026C137.546 4.57532 137.458 4.35737 137.458 4.0864C137.458 3.82721 137.546 3.61515 137.723 3.45021C137.9 3.28527 138.129 3.20281 138.412 3.20281C138.694 3.20281 138.924 3.28527 139.1 3.45021C139.277 3.61515 139.365 3.82721 139.365 4.0864C139.365 4.35737 139.277 4.57532 139.1 4.74026C138.924 4.90519 138.694 4.98766 138.412 4.98766Z" fill="white"/>
    <path d="M145.358 15.7498C144.546 15.7498 143.828 15.5672 143.204 15.202C142.592 14.8368 142.115 14.3184 141.774 13.6469C141.444 12.9636 141.279 12.1742 141.279 11.2788C141.279 10.3835 141.444 9.60002 141.774 8.92849C142.115 8.24518 142.592 7.72091 143.204 7.35569C143.828 6.99048 144.546 6.80787 145.358 6.80787C146.17 6.80787 146.888 6.99048 147.512 7.35569C148.136 7.72091 148.612 8.24518 148.942 8.92849C149.283 9.60002 149.454 10.3835 149.454 11.2788C149.454 12.1742 149.283 12.9636 148.942 13.6469C148.612 14.3184 148.136 14.8368 147.512 15.202C146.888 15.5672 146.17 15.7498 145.358 15.7498ZM145.358 14.5658C146.205 14.5658 146.853 14.289 147.3 13.7352C147.759 13.1697 147.988 12.3509 147.988 11.2788C147.988 10.2303 147.759 9.4233 147.3 8.8578C146.841 8.28052 146.193 7.99188 145.358 7.99188C144.522 7.99188 143.875 8.28052 143.416 8.8578C142.957 9.4233 142.727 10.2303 142.727 11.2788C142.727 12.3392 142.951 13.1521 143.398 13.7176C143.857 14.2831 144.51 14.5658 145.358 14.5658Z" fill="white"/>
    <path d="M155.91 6.80787C157.97 6.80787 159 7.94476 159 10.2185V15.0076C159 15.2315 158.935 15.4082 158.806 15.5378C158.688 15.6556 158.517 15.7145 158.294 15.7145C158.07 15.7145 157.894 15.6556 157.764 15.5378C157.635 15.4082 157.57 15.2315 157.57 15.0076V10.3069C157.57 9.50577 157.411 8.9226 157.093 8.55738C156.787 8.19216 156.293 8.00955 155.61 8.00955C154.821 8.00955 154.192 8.25107 153.721 8.7341C153.25 9.21713 153.015 9.87099 153.015 10.6957V15.0076C153.015 15.2315 152.95 15.4082 152.821 15.5378C152.703 15.6556 152.532 15.7145 152.309 15.7145C152.085 15.7145 151.908 15.6556 151.779 15.5378C151.649 15.4082 151.585 15.2315 151.585 15.0076V7.55008C151.585 7.33802 151.649 7.16719 151.779 7.0376C151.908 6.90801 152.085 6.84321 152.309 6.84321C152.52 6.84321 152.685 6.90801 152.803 7.0376C152.932 7.16719 152.997 7.33213 152.997 7.53241V8.43368C153.28 7.90352 153.674 7.50296 154.18 7.23199C154.686 6.94924 155.263 6.80787 155.91 6.80787Z" fill="white"/>
</svg>