<svg width="128" height="44" viewBox="0 0 128 44" fill="none" xmlns="http://www.w3.org/2000/svg">
<rect x="91" y="26" width="37" height="18" rx="9" fill="#319CFF"/>
<path d="M100.531 30.6V38H98.8212V30.6H100.531ZM102.63 31.84C102.33 31.84 102.084 31.7533 101.89 31.58C101.704 31.4 101.61 31.18 101.61 30.92C101.61 30.6533 101.704 30.4333 101.89 30.26C102.084 30.08 102.33 29.99 102.63 29.99C102.924 29.99 103.164 30.08 103.35 30.26C103.544 30.4333 103.64 30.6533 103.64 30.92C103.64 31.18 103.544 31.4 103.35 31.58C103.164 31.7533 102.924 31.84 102.63 31.84ZM103.48 32.42V38H101.77V32.42H103.48ZM107.23 36.4L108.44 32.42H110.26L108.28 38H106.17L104.19 32.42H106.02L107.23 36.4ZM112.689 33.35C112.889 33.0433 113.139 32.8033 113.439 32.63C113.739 32.45 114.073 32.36 114.439 32.36V34.17H113.969C113.543 34.17 113.223 34.2633 113.009 34.45C112.796 34.63 112.689 34.95 112.689 35.41V38H110.979V32.42H112.689V33.35ZM120.517 35.12C120.517 35.28 120.507 35.4467 120.487 35.62H116.617C116.643 35.9667 116.753 36.2333 116.947 36.42C117.147 36.6 117.39 36.69 117.677 36.69C118.103 36.69 118.4 36.51 118.567 36.15H120.387C120.293 36.5167 120.123 36.8467 119.877 37.14C119.637 37.4333 119.333 37.6633 118.967 37.83C118.6 37.9967 118.19 38.08 117.737 38.08C117.19 38.08 116.703 37.9633 116.277 37.73C115.85 37.4967 115.517 37.1633 115.277 36.73C115.037 36.2967 114.917 35.79 114.917 35.21C114.917 34.63 115.033 34.1233 115.267 33.69C115.507 33.2567 115.84 32.9233 116.267 32.69C116.693 32.4567 117.183 32.34 117.737 32.34C118.277 32.34 118.757 32.4533 119.177 32.68C119.597 32.9067 119.923 33.23 120.157 33.65C120.397 34.07 120.517 34.56 120.517 35.12ZM118.767 34.67C118.767 34.3767 118.667 34.1433 118.467 33.97C118.267 33.7967 118.017 33.71 117.717 33.71C117.43 33.71 117.187 33.7933 116.987 33.96C116.793 34.1267 116.673 34.3633 116.627 34.67H118.767Z" fill="white"/>
<path d="M14.3776 19.088C14.3776 19.472 14.3536 19.872 14.3056 20.288H5.01763C5.08163 21.12 5.34563 21.76 5.80963 22.208C6.28963 22.64 6.87363 22.856 7.56163 22.856C8.58563 22.856 9.29763 22.424 9.69763 21.56H14.0656C13.8416 22.44 13.4336 23.232 12.8416 23.936C12.2656 24.64 11.5376 25.192 10.6576 25.592C9.77763 25.992 8.79363 26.192 7.70563 26.192C6.39363 26.192 5.22563 25.912 4.20163 25.352C3.17763 24.792 2.37763 23.992 1.80163 22.952C1.22563 21.912 0.937625 20.696 0.937625 19.304C0.937625 17.912 1.21763 16.696 1.77763 15.656C2.35363 14.616 3.15363 13.816 4.17763 13.256C5.20163 12.696 6.37763 12.416 7.70563 12.416C9.00163 12.416 10.1536 12.688 11.1616 13.232C12.1696 13.776 12.9536 14.552 13.5136 15.56C14.0896 16.568 14.3776 17.744 14.3776 19.088ZM10.1776 18.008C10.1776 17.304 9.93763 16.744 9.45763 16.328C8.97763 15.912 8.37763 15.704 7.65763 15.704C6.96963 15.704 6.38563 15.904 5.90563 16.304C5.44163 16.704 5.15363 17.272 5.04163 18.008H10.1776ZM24.7027 12.464C26.2707 12.464 27.5187 12.976 28.4467 14C29.3907 15.008 29.8627 16.4 29.8627 18.176V26H25.7827V18.728C25.7827 17.832 25.5507 17.136 25.0867 16.64C24.6227 16.144 23.9987 15.896 23.2147 15.896C22.4307 15.896 21.8067 16.144 21.3427 16.64C20.8787 17.136 20.6467 17.832 20.6467 18.728V26H16.5427V12.608H20.6467V14.384C21.0627 13.792 21.6227 13.328 22.3267 12.992C23.0307 12.64 23.8227 12.464 24.7027 12.464ZM31.8986 19.304C31.8986 17.912 32.1786 16.696 32.7386 15.656C33.3146 14.616 34.1066 13.816 35.1146 13.256C36.1386 12.696 37.3066 12.416 38.6186 12.416C40.2986 12.416 41.6986 12.856 42.8186 13.736C43.9546 14.616 44.6986 15.856 45.0506 17.456H40.6826C40.3146 16.432 39.6026 15.92 38.5466 15.92C37.7946 15.92 37.1946 16.216 36.7466 16.808C36.2986 17.384 36.0746 18.216 36.0746 19.304C36.0746 20.392 36.2986 21.232 36.7466 21.824C37.1946 22.4 37.7946 22.688 38.5466 22.688C39.6026 22.688 40.3146 22.176 40.6826 21.152H45.0506C44.6986 22.72 43.9546 23.952 42.8186 24.848C41.6826 25.744 40.2826 26.192 38.6186 26.192C37.3066 26.192 36.1386 25.912 35.1146 25.352C34.1066 24.792 33.3146 23.992 32.7386 22.952C32.1786 21.912 31.8986 20.696 31.8986 19.304ZM60.4698 12.608V26H56.3658V24.176C55.9498 24.768 55.3818 25.248 54.6618 25.616C53.9578 25.968 53.1738 26.144 52.3098 26.144C51.2858 26.144 50.3818 25.92 49.5978 25.472C48.8138 25.008 48.2058 24.344 47.7738 23.48C47.3418 22.616 47.1258 21.6 47.1258 20.432V12.608H51.2058V19.88C51.2058 20.776 51.4378 21.472 51.9018 21.968C52.3658 22.464 52.9898 22.712 53.7738 22.712C54.5738 22.712 55.2058 22.464 55.6698 21.968C56.1338 21.472 56.3658 20.776 56.3658 19.88V12.608H60.4698ZM67.5217 14.84C68.0017 14.104 68.6017 13.528 69.3217 13.112C70.0417 12.68 70.8417 12.464 71.7217 12.464V16.808H70.5937C69.5697 16.808 68.8017 17.032 68.2897 17.48C67.7777 17.912 67.5217 18.68 67.5217 19.784V26H63.4177V12.608H67.5217V14.84ZM81.1473 22.52V26H79.0593C77.5713 26 76.4113 25.64 75.5793 24.92C74.7473 24.184 74.3313 22.992 74.3313 21.344V16.016H72.6993V12.608H74.3313V9.344H78.4353V12.608H81.1233V16.016H78.4353V21.392C78.4353 21.792 78.5313 22.08 78.7233 22.256C78.9153 22.432 79.2353 22.52 79.6833 22.52H81.1473ZM96.0573 19.088C96.0573 19.472 96.0333 19.872 95.9853 20.288H86.6973C86.7613 21.12 87.0253 21.76 87.4893 22.208C87.9693 22.64 88.5533 22.856 89.2413 22.856C90.2653 22.856 90.9773 22.424 91.3773 21.56H95.7453C95.5213 22.44 95.1133 23.232 94.5213 23.936C93.9453 24.64 93.2173 25.192 92.3373 25.592C91.4573 25.992 90.4733 26.192 89.3853 26.192C88.0733 26.192 86.9053 25.912 85.8813 25.352C84.8573 24.792 84.0573 23.992 83.4813 22.952C82.9053 21.912 82.6173 20.696 82.6173 19.304C82.6173 17.912 82.8973 16.696 83.4573 15.656C84.0333 14.616 84.8333 13.816 85.8573 13.256C86.8813 12.696 88.0573 12.416 89.3853 12.416C90.6813 12.416 91.8333 12.688 92.8413 13.232C93.8493 13.776 94.6333 14.552 95.1933 15.56C95.7693 16.568 96.0573 17.744 96.0573 19.088ZM91.8573 18.008C91.8573 17.304 91.6173 16.744 91.1373 16.328C90.6573 15.912 90.0573 15.704 89.3373 15.704C88.6493 15.704 88.0653 15.904 87.5853 16.304C87.1213 16.704 86.8333 17.272 86.7213 18.008H91.8573Z" fill="white"/>
</svg>
